<?xml version="1.0" encoding="UTF-8"?>
<svg id="Capa_2" data-name="Capa 2" xmlns="http://www.w3.org/2000/svg" viewBox="0 0 14 14">
  <g id="Capa_1-2" data-name="Capa 1">
    <path d="M13.99,8.1c-.06,.38-.39,.66-.78,.66-.15,0-.22,.09-.24,.18-.02,.08-.03,.19,.09,.29,.31,.22,.41,.64,.24,.98-.14,.26-.41,.43-.69,.43-.09,0-.16-.02-.25-.04-.03-.02-.06-.02-.09-.02-.11,0-.19,.08-.23,.15-.07,.13,0,.23,.02,.26,.23,.3,.19,.74-.08,1-.15,.16-.35,.23-.54,.23-.16,0-.33-.05-.46-.16-.05-.03-.1-.05-.15-.05-.09,0-.17,.05-.23,.12-.05,.06-.05,.13-.02,.22,.12,.37-.05,.76-.39,.94-.11,.05-.23,.09-.35,.09-.25,0-.48-.12-.63-.33-.05-.07-.12-.11-.2-.11-.07,0-.15,.03-.2,.09-.05,.05-.06,.1-.06,.18,0,.38-.28,.71-.66,.77-.04,0-.08,0-.12,0-.33,0-.64-.22-.75-.54-.05-.15-.16-.18-.24-.18s-.19,.03-.24,.18c-.11,.32-.41,.54-.75,.54-.04,0-.08,0-.12,0-.38-.06-.66-.39-.66-.77,0-.08-.02-.13-.06-.18-.05-.05-.13-.09-.2-.09-.09,0-.15,.04-.2,.11-.15,.21-.38,.33-.63,.33-.12,0-.24-.03-.35-.09-.34-.18-.51-.58-.39-.94,.03-.09,.02-.16-.02-.22-.05-.08-.14-.12-.23-.12-.05,0-.09,.02-.15,.05-.13,.1-.3,.16-.46,.16-.19,0-.4-.08-.54-.23-.27-.26-.31-.7-.08-1,.02-.03,.09-.13,.02-.26-.04-.07-.12-.15-.23-.15-.02,0-.05,0-.09,.02-.09,.02-.16,.04-.25,.04-.28,0-.55-.16-.69-.43-.17-.34-.07-.76,.24-.98,.12-.09,.12-.21,.09-.29-.02-.09-.09-.18-.25-.18-.38,0-.71-.28-.77-.66-.05-.38,.17-.74,.53-.86,.15-.05,.18-.16,.18-.24s-.03-.19-.18-.24c-.36-.12-.58-.48-.53-.86,.06-.38,.39-.66,.78-.66,.15,0,.22-.09,.24-.18,.02-.08,.03-.19-.09-.29-.31-.22-.41-.64-.24-.98,.14-.26,.41-.43,.69-.43,.09,0,.16,.02,.25,.04,.03,.02,.06,.02,.09,.02,.11,0,.19-.08,.23-.15,.07-.13,0-.23-.02-.26-.23-.3-.19-.74,.08-1,.15-.16,.35-.23,.54-.23,.16,0,.33,.05,.46,.16,.05,.03,.1,.05,.15,.05,.09,0,.17-.05,.23-.12,.05-.06,.05-.13,.02-.22-.12-.37,.05-.76,.39-.94,.11-.05,.23-.09,.35-.09,.25,0,.48,.12,.63,.33,.05,.07,.12,.11,.2,.11,.07,0,.15-.03,.2-.09,.05-.05,.06-.1,.06-.18C5.23,.4,5.51,.07,5.9,0c.04,0,.08,0,.12,0,.33,0,.64,.22,.75,.54,.05,.15,.16,.18,.24,.18s.19-.02,.24-.16c.02-.07,.05-.12,.09-.19,.05-.07,.1-.14,.17-.19,.1-.09,.23-.14,.37-.16,.04,0,.08,0,.12,0h0c.43,0,.77,.35,.77,.78v.03c0,.06,.02,.11,.06,.15,.05,.05,.13,.09,.2,.09,.08,0,.14-.03,.19-.11,.02-.02,.02-.03,.04-.05,.05-.06,.12-.12,.18-.16,.11-.07,.23-.11,.36-.12,.02,0,.04,0,.06,0h.02c.42,0,.76,.36,.76,.78,0,.1-.02,.19-.05,.27-.02,.08,0,.14,.03,.19,.05,.08,.14,.12,.23,.12,.05,0,.09-.02,.15-.05,.13-.1,.3-.16,.46-.16,.19,0,.4,.08,.54,.23,.27,.26,.31,.7,.08,1-.02,.03-.09,.13-.02,.26,.04,.07,.12,.15,.23,.15,.02,0,.05,0,.09-.02,.09-.02,.16-.04,.25-.04,.28,0,.55,.16,.69,.43,.17,.34,.07,.76-.24,.98-.12,.09-.12,.21-.09,.29,.02,.09,.09,.18,.25,.18,.38,0,.71,.28,.77,.66,.05,.38-.17,.74-.53,.86-.15,.05-.18,.16-.18,.24s.03,.19,.18,.24c.36,.12,.58,.48,.53,.86Z" style="fill: #228b22;"/>
  </g>
</svg>