<?xml version="1.0" encoding="UTF-8"?>
<svg id="Capa_2" data-name="Capa 2" xmlns="http://www.w3.org/2000/svg" viewBox="0 0 324.64 336.11">
  <g id="perrris-vectores">
    <g>
      <polygon points="155.42 155.48 158.63 167.82 163.79 171.21 179.99 164.54 176.43 151.28 167.71 148.58 155.42 155.48" style="fill: #fce8d6;"/>
      <g>
        <path d="M216.33,330.86c-.99,0-1.97-.28-2.81-.82l-42.75-27.11-61.63-28.21c-1.11-.51-2-1.38-2.54-2.48l-37.81-77.71c-.31-.63-.49-1.32-.52-2.02l-3.85-73.59-11.06-24.94h-4.01v10.05c0,1.52-.66,2.97-1.81,3.97l-15.75,13.65c-.96,.83-2.18,1.28-3.44,1.28-.21,0-.42-.01-.63-.04-1.47-.18-2.8-.97-3.65-2.18L6.22,95.51c-.88-1.24-1.18-2.81-.81-4.29l12.79-52.15c.3-1.23,1.04-2.31,2.07-3.04L62.53,6.21c.89-.62,1.94-.96,3.03-.96h43.52c1.07,0,2.12,.33,3,.94l33.99,23.71,42.38,10.96,7.93-.94v-2.06c0-2.13,1.29-4.05,3.26-4.86l22.77-9.31,15.04-8.72c.81-.47,1.72-.71,2.63-.71,.79,0,1.57,.18,2.3,.53l18.25,8.91c1.08,.53,1.95,1.41,2.46,2.51l13.65,29.4c.19,.4,.32,.82,.4,1.26l7.18,38.98,4.87,8.19,10.41,17.55c.75,1.27,.94,2.8,.51,4.21l-9.27,30.36,11.16,11.15c1.56,1.56,1.98,3.93,1.05,5.93-.87,1.86-2.73,3.04-4.76,3.04-.15,0-.3,0-.45-.02l-20.91-1.79-21.82,8.27v21.05l5.96,8.12,15.22-2.78c.31-.06,.63-.09,.94-.09,.27,0,.53,.02,.8,.06l19.53,3.01,3.01-2.56c.97-.83,2.18-1.25,3.4-1.25,.96,0,1.92,.26,2.77,.79l10.16,6.3c2.18,1.35,3.06,4.08,2.09,6.46l-10.65,25.95c-.24,.59-.59,1.13-1.02,1.59l-14.7,15.75c-1.02,1.09-2.42,1.67-3.84,1.67-.87,0-1.75-.22-2.55-.66l-9.45-5.25c-1.01-.56-1.8-1.43-2.26-2.48l-1.97-4.49-5.1,2.6,12.37,24.75c.75,1.5,.74,3.27-.03,4.76l-6.83,13.2,2.73,2.73c1.52,1.52,1.96,3.81,1.11,5.78l-6.3,14.7c-.75,1.75-2.38,2.95-4.27,3.15l-49.36,5.25c-.19,.02-.37,.03-.56,.03Z" style="fill: #0c0a07;"/>
        <path d="M109.08,10.5l34.76,24.25,44.24,11.45,13.55-1.6v-6.73l23.1-9.45,15.35-8.91,18.25,8.91,13.65,29.4,7.35,39.91,.43,.72,4.91,8.28,10.41,17.55-4.05,13.27-6.13,20.1,.04,.04,13.35,13.34-21.72-1.86-.39-.03-26.33,9.98v26.4l8.93,12.15,18.45-3.37,21.91,3.37,4.84-4.12,10.15,6.3-10.65,25.95-14.7,15.75-9.45-5.25-4.2-9.6-14.7,7.5,3.84,7.68,10.86,21.73-7.71,14.9-.88,1.71,5.44,5.44-6.3,14.7-49.36,5.25-42.63-27.03-.43-.27-61.96-28.35-37.81-77.71-3.9-74.56-5.67-12.79-7.16-16.16h-12.68v15.3l-3.15,2.73-12.6,10.92-17.85-25.2,12.79-52.15L65.56,10.5h43.52m0-10.5h-43.52c-2.17,0-4.28,.67-6.05,1.92L17.24,31.75c-2.07,1.46-3.54,3.62-4.14,6.08L.3,89.97c-.73,2.96-.13,6.09,1.63,8.57l17.85,25.2c1.71,2.42,4.37,4,7.31,4.36,.42,.05,.84,.08,1.26,.08,2.51,0,4.96-.9,6.88-2.57l12.6-10.92,3.15-2.73c1.26-1.09,2.23-2.46,2.85-3.97l.51,1.15,4.89,11.02,3.79,72.62c.07,1.4,.43,2.78,1.04,4.05l37.81,77.71c1.07,2.19,2.86,3.94,5.07,4.95l61.31,28.06,42.45,26.92c1.69,1.07,3.64,1.63,5.62,1.63,.37,0,.74-.02,1.11-.06l49.36-5.25c3.78-.4,7.04-2.81,8.54-6.31l6.3-14.7c1.69-3.95,.81-8.53-2.23-11.56h-.01s5.06-9.8,5.06-9.8c1.54-2.98,1.57-6.52,.07-9.52l-5.33-10.67,4.49,2.5c1.6,.89,3.36,1.32,5.1,1.32,2.84,0,5.64-1.15,7.68-3.34l14.7-15.75c.87-.93,1.56-2,2.04-3.18l10.65-25.95c1.95-4.75,.18-10.21-4.18-12.91l-10.15-6.3c-1.7-1.06-3.62-1.58-5.53-1.58-2.44,0-4.86,.85-6.8,2.5l-1.18,1.01-17.16-2.64c-.53-.08-1.06-.12-1.6-.12-.63,0-1.26,.06-1.89,.17l-11.99,2.19-3-4.08v-15.71l17.32-6.56,19.72,1.69c.3,.03,.6,.04,.9,.04,4.06,0,7.79-2.35,9.52-6.07,1.86-4,1.02-8.74-2.1-11.86l-8.93-8.92,4.29-14.07,4.05-13.27c.86-2.83,.5-5.88-1.01-8.42l-10.41-17.55-4.39-7.39-7.01-38.06c-.16-.87-.43-1.72-.8-2.52l-13.65-29.4c-1.02-2.19-2.75-3.96-4.92-5.02l-18.25-8.91c-1.46-.71-3.03-1.06-4.6-1.06-1.82,0-3.64,.47-5.27,1.42l-14.73,8.54-22.43,9.18c-3.11,1.27-5.37,3.92-6.19,7.07l-2.66,.31-40.51-10.48L115.09,1.89c-1.76-1.23-3.86-1.89-6.01-1.89h0Z" style="fill: #140c02;"/>
      </g>
      <polygon points="314.14 219.85 303.49 245.8 288.79 261.55 279.34 256.3 275.14 246.7 260.44 254.2 264.28 261.88 275.14 283.6 267.43 298.5 266.55 300.22 271.99 305.66 265.69 320.36 216.33 325.61 173.71 298.58 173.27 298.31 111.32 269.95 73.51 192.24 69.61 117.68 63.94 104.89 56.78 88.73 44.11 88.73 44.11 104.03 40.96 106.76 28.35 117.68 10.5 92.48 23.29 40.33 65.56 10.5 109.08 10.5 143.84 34.75 188.08 46.2 201.63 44.6 201.63 37.87 224.73 28.42 240.09 19.51 258.34 28.42 271.99 57.82 279.34 97.73 279.77 98.45 284.68 106.73 295.09 124.27 291.04 137.55 284.91 157.65 284.95 157.69 298.29 171.03 276.58 169.17 276.19 169.14 249.86 179.11 249.86 205.51 258.79 217.66 277.24 214.29 299.15 217.66 303.99 213.55 314.14 219.85" style="fill: #963;"/>
      <polygon points="104.04 52.05 63.94 104.89 56.78 88.73 44.11 88.73 44.11 104.03 40.96 106.76 40.96 59.92 81.2 29.2 104.04 52.05" style="fill: #140c02;"/>
      <polygon points="271.99 305.66 265.69 320.36 216.33 325.61 173.71 298.58 134.42 251.05 149.12 239.5 181 264.7 193.23 264.7 199.21 267 199.21 267.01 234.08 280.43 234.09 280.43 262.68 291.44 267.43 298.5 266.55 300.22 271.99 305.66" style="fill: #6b4625;"/>
      <polygon points="314.14 219.85 303.49 245.8 288.79 261.55 279.34 256.3 275.14 246.7 273.46 247.56 260.44 254.2 264.28 261.88 234.09 280.43 234.08 280.43 233.84 280.58 225.56 285.66 204.78 278.35 199.21 267.01 199.21 267 185.73 239.5 200.58 217.44 249.86 193.47 270.11 183.62 306.98 201.94 303.49 213.24 303.99 213.55 314.14 219.85" style="fill: #6b4625;"/>
      <polygon points="306.98 201.94 303.49 213.24 303.99 213.55 299.15 217.66 277.24 214.29 258.79 217.66 249.86 205.51 249.86 179.11 276.19 169.14 276.58 169.17 298.29 171.03 302.26 175 303.87 176.6 310.62 190.14 306.98 201.94" style="fill: #0c0a07;"/>
      <polygon points="298.29 171.03 276.58 169.17 261.49 128.18 279.36 99.12 279.77 98.45 284.68 106.73 295.09 124.27 284.91 157.65 298.29 171.03" style="fill: #6b4625;"/>
      <polygon points="142.82 153.38 144.92 162.84 167.71 175.48 169.86 183.62 190.79 171.03 193.83 156.74 183.78 139.73 185.73 125.52 176.28 125.52 173.27 139.73 165.4 138.68 152.27 147.08 140.72 148.13 142.82 153.38" style="fill: #140c02;"/>
      <polygon points="284.68 106.73 279.36 99.12 246.48 52.05 201.63 44.17 201.63 37.87 224.73 28.42 240.09 19.51 258.34 28.42 271.99 57.82 279.34 97.73 279.77 98.45 284.68 106.73" style="fill: #140c02;"/>
      <polygon points="284.91 157.65 284.95 157.69 273.04 163.89 263.59 153.38 259.91 126.61 264.11 123.46 273.56 137.11 281.97 138.16 291.04 137.55 284.91 157.65" style="fill: #140c02;"/>
      <g>
        <polygon points="157.41 153.43 159.82 162.71 163.7 165.26 175.9 160.24 173.22 150.26 166.65 148.23 157.41 153.43" style="fill: #ffe3ca;"/>
        <polygon points="176.83 161.29 163.06 167.01 162.41 166.58 161.81 157.31 156.39 155.24 155.95 153.52 166.4 147.61 167.21 147.86 166.4 155.44 176.63 160.5 176.63 160.51 176.83 161.29" style="fill: #140c02;"/>
      </g>
      <g>
        <polygon points="266.98 146.54 269.1 154.71 272.51 156.95 283.24 152.53 280.88 143.76 275.11 141.97 266.98 146.54" style="fill: #ffe3ca;"/>
        <polygon points="284.07 153.46 271.94 158.49 271.38 158.12 270.85 149.96 266.08 148.14 265.69 146.63 274.88 141.42 275.6 141.65 274.88 148.32 283.88 152.77 283.88 152.78 284.07 153.46" style="fill: #140c02;"/>
      </g>
      <polygon points="291.04 298.5 255.02 308.64 237.86 291.48 233.84 280.58 234.08 280.43 234.09 280.43 264.28 261.88 260.44 254.2 273.46 247.56 283.25 267.09 291.04 298.5" style="fill: #ffd4eb;"/>
    </g>
  </g>
</svg>