<?xml version="1.0" encoding="UTF-8"?>
<svg id="Capa_2" data-name="Capa 2" xmlns="http://www.w3.org/2000/svg" viewBox="0 0 352.66 377.11">
  <g id="perrris-vectores">
    <g>
      <g>
        <path d="M181.4,371.7c-.64,0-1.27-.11-1.88-.34l-35.49-13.12c-.81-.3-1.54-.79-2.12-1.43l-18.13-19.83-19.47,3.83c-.35,.07-.7,.1-1.05,.1-1.86,0-3.62-.96-4.62-2.59l-29.48-48.21c-1.02-1.67-1.06-3.76-.1-5.47l3.51-6.27-5.9-24.24-5.29,4.79c-1.01,.91-2.3,1.4-3.63,1.4-.39,0-.78-.04-1.16-.13-1.71-.38-3.13-1.56-3.82-3.17L5.85,146.65c-.57-1.33-.58-2.83-.03-4.17l24.04-58.72c.32-.79,.83-1.5,1.48-2.05l53.9-46.33L109.17,7.32c1.03-1.21,2.54-1.9,4.12-1.9,.16,0,.32,0,.48,.02l62.61,5.6,77.52-5.61c.13,0,.26-.01,.39-.01,1.76,0,3.43,.86,4.44,2.32l11.71,16.82,65.22,46.55c1.25,.89,2.06,2.27,2.23,3.79l9.32,81.15c.07,.64,.03,1.28-.12,1.9l-17.33,71.1c-.32,1.33-1.14,2.49-2.29,3.25l-21.18,13.9c-.9,.59-1.93,.89-2.97,.89-.73,0-1.47-.15-2.16-.45-1.67-.73-2.87-2.25-3.18-4.05l-1.69-9.82-10.09,33.57c.08,.26,.13,.53,.17,.8l4.46,34.55c.23,1.77-.43,3.53-1.75,4.72l-36.88,33.12c-1.01,.9-2.3,1.39-3.62,1.39-.5,0-1-.07-1.5-.21l-6.38-1.83-15.74,17.87c-.63,.72-1.45,1.26-2.36,1.56l-39.49,13.12c-.55,.18-1.13,.28-1.71,.28Z" style="fill: #0c0a07;"/>
        <path d="M254.29,10.83l12.24,17.58h.01s65.97,47.1,65.97,47.1l9.32,81.15-17.33,71.1-21.18,13.9-5.6-32.47-17.31,57.58,.58,1.05,4.46,34.55-36.88,33.12-9.67-2.78-18.01,20.45-39.49,13.12-35.49-13.12-20.18-22.08-22.46,4.42-29.48-48.21,4.56-8.13-8.55-35.14-12.03,10.89L10.83,144.53l24.04-58.72,54.22-46.6,24.2-28.38,63.04,5.64,77.96-5.64m0-10.83c-.26,0-.52,0-.78,.03l-77.09,5.58L114.25,.04c-.32-.03-.65-.04-.97-.04-3.15,0-6.17,1.38-8.24,3.8l-23.66,27.74L27.81,77.6c-1.3,1.12-2.31,2.52-2.96,4.11L.81,140.42c-1.1,2.68-1.08,5.68,.06,8.34l46.94,110.38c1.37,3.22,4.22,5.59,7.64,6.34,.77,.17,1.55,.25,2.33,.25,2.04,0,4.04-.57,5.77-1.66l3.29,13.51-2.47,4.41c-1.92,3.42-1.84,7.6,.21,10.95l29.48,48.21c1.99,3.26,5.52,5.18,9.24,5.18,.69,0,1.39-.07,2.09-.2l16.48-3.24,16.07,17.59c1.17,1.28,2.62,2.25,4.24,2.85l35.49,13.12c1.21,.45,2.48,.67,3.76,.67,1.15,0,2.3-.18,3.41-.55l39.49-13.12c1.82-.6,3.45-1.68,4.71-3.12l13.48-15.3,3.08,.89c.99,.28,1.99,.42,2.99,.42,2.64,0,5.22-.96,7.24-2.77l36.88-33.12c2.65-2.38,3.96-5.91,3.51-9.45l-4.44-34.35,4.93-16.41c.7,.54,1.48,1,2.31,1.37,1.38,.6,2.85,.9,4.31,.9,2.08,0,4.15-.6,5.94-1.78l21.18-13.9c2.29-1.51,3.93-3.82,4.58-6.49l17.33-71.1c.3-1.24,.38-2.53,.24-3.8l-9.32-81.15c-.35-3.04-1.97-5.8-4.47-7.58l-64.45-46-11.17-16.05c-2.03-2.92-5.36-4.64-8.89-4.64h0Z" style="fill: #140c02;"/>
      </g>
      <polygon points="238.9 332.72 220.9 353.16 181.4 366.28 145.91 353.16 125.73 331.08 148.36 326.64 150.49 341.02 180.54 346.53 211.17 341.1 215.22 325.91 238.9 332.72" style="fill: #efdcbd;"/>
      <polygon points="215.22 325.91 211.17 341.1 180.54 346.53 150.49 341.02 148.36 326.64 150.49 326.22 180.54 307.9 212.31 325.07 215.22 325.91" style="fill: #fff0c5;"/>
      <path d="M303.32,190.56l-5.6,18.64-17.31,57.58-47.29-84.78-52.58-17.61-47.79,17.61-54.4,97.17-8.55-35.14-3.72-15.32v-.03s-8.31-34.1-8.31-34.1l9.16-129.36,22.16-25.99h0s24.2-28.39,24.2-28.39l63.04,5.64,77.96-5.64,12.24,17.58h.01s29.34,42.15,29.34,42.15l7.44,120Z" style="fill: #f9e7c7;"/>
      <path d="M66.92,65.21l-9.16,129.36,8.3,34.1v.03s3.73,15.32,3.73,15.32l-12.03,10.89L10.83,144.53l24.04-58.72,54.22-46.6h0s-22.16,26-22.16,26Z" style="fill: #f9e7c7;"/>
      <polygon points="341.83 156.66 324.5 227.76 303.32 241.66 297.72 209.2 303.32 190.56 295.88 70.56 266.54 28.43 332.51 75.51 341.83 156.66" style="fill: #f9e7c7;"/>
      <polygon points="285.46 302.38 248.58 335.5 238.9 332.72 215.22 325.91 212.31 325.07 180.54 307.9 150.49 326.22 148.36 326.64 125.73 331.08 103.27 335.5 73.79 287.29 78.35 279.16 132.75 182 180.54 164.39 233.12 182 280.41 266.78 281 267.83 285.46 302.38" style="fill: #efd4af;"/>
      <polygon points="215.22 325.91 211.17 341.1 180.54 346.53 150.49 341.02 148.36 326.64 150.49 326.22 180.54 307.9 212.31 325.07 215.22 325.91" style="fill: #ffd4eb;"/>
      <polygon points="145.91 225.07 132.75 261.78 155.07 291.87 180.54 297.11 213.45 289.58 229.81 261.09 214.35 225.07 181.28 211.17 145.91 225.07" style="fill: #140c02;"/>
      <polygon points="97.1 97.83 94.97 88.1 109.85 80.09 124.98 90.96 122.45 94.97 109.98 91.45 97.1 97.83" style="fill: #efdcbd;"/>
      <polygon points="260.46 100.12 262.6 90.39 247.71 82.38 232.59 93.25 235.12 97.26 247.59 93.74 260.46 100.12" style="fill: #efdcbd;"/>
      <g>
        <g>
          <polygon points="121.92 125.4 121.5 125.47 121.87 125.31 121.92 125.4" style="fill: #140c02;"/>
          <polygon points="122.23 125.9 119.01 134.47 107.56 144.77 98.4 135.61 104.7 130.71 108.95 136.88 115.58 132.46 115.11 128.12 114.94 126.56 121.5 125.47 121.92 125.4 122.23 125.9" style="fill: #fff8f0;"/>
          <polygon points="122.45 125.31 122.23 125.9 121.92 125.4 122.45 125.31" style="fill: #fff8f0;"/>
        </g>
        <polygon points="128.66 136.76 105.85 153.93 90.23 146.15 81.81 151.64 80.09 143.05 85.24 137.9 101.19 119.58 105.27 120.74 105.27 120.73 114.43 121.87 114.94 126.56 115.11 128.12 115.58 132.46 108.95 136.88 104.7 130.71 98.4 135.61 107.56 144.77 119.01 134.47 122.23 125.9 128.66 136.76" style="fill: #140c02;"/>
      </g>
      <g>
        <g>
          <polygon points="233.52 125.4 233.95 125.47 233.57 125.31 233.52 125.4" style="fill: #140c02;"/>
          <polygon points="233.21 125.9 236.43 134.47 247.88 144.77 257.04 135.61 250.74 130.71 246.49 136.88 239.86 132.46 240.33 128.12 240.5 126.56 233.95 125.47 233.52 125.4 233.21 125.9" style="fill: #fff8f0;"/>
          <polygon points="233 125.31 233.21 125.9 233.52 125.4 233 125.31" style="fill: #fff8f0;"/>
        </g>
        <polygon points="226.78 136.76 249.59 153.93 265.21 146.15 273.63 151.64 275.35 143.05 270.2 137.9 254.25 119.58 250.17 120.74 250.17 120.73 241.01 121.87 240.5 126.56 240.33 128.12 239.86 132.46 246.49 136.88 250.74 130.71 257.04 135.61 247.88 144.77 236.43 134.47 233.21 125.9 226.78 136.76" style="fill: #140c02;"/>
      </g>
      <polygon points="316.64 100.12 316.64 164.39 303.32 190.56 295.88 70.56 316.64 100.12" style="fill: #efd4af;"/>
      <polygon points="57.77 194.57 66.07 228.67 39.21 164.39 66.92 65.21 57.77 194.57" style="fill: #efd4af;"/>
    </g>
  </g>
</svg>