<?xml version="1.0" encoding="UTF-8"?>
<svg id="Capa_2" data-name="Capa 2" xmlns="http://www.w3.org/2000/svg" viewBox="0 0 298.04 346.96">
  <g id="perrris-vectores">
    <g>
      <g>
        <path d="M119.8,342.21c-1.23,0-2.45-.48-3.36-1.39l-22.84-22.85-3.22-2.39-10.85-5.35c-.93-.46-1.68-1.2-2.14-2.13l-1.91-3.8c-.36-.47-.62-1-.79-1.57L22.57,198.87c-.33-.66-.5-1.39-.5-2.13v-51.65l-15.63-13.13c-1.07-.9-1.69-2.23-1.69-3.63V47.52c0-1.09,.38-2.15,1.07-3L36.86,6.49c.93-1.14,2.3-1.74,3.68-1.74,.9,0,1.81,.26,2.61,.78l36.81,24.25c.41-.15,.84-.25,1.28-.29l115.8-9.49c.13-.01,.26-.02,.39-.02,1.59,0,3.08,.79,3.96,2.13l.63,.96L248.43,5.07c.56-.22,1.14-.32,1.72-.32,1.8,0,3.52,1.03,4.31,2.77l38.4,83.58c.57,1.24,.58,2.67,.02,3.92l-16.44,36.78c-.76,1.71-2.46,2.81-4.33,2.81h-12.64v13.53c0,.2-.01,.41-.04,.61l-8.24,63.95c-.1,.75-.37,1.46-.8,2.09l-67.09,97.41c-.61,.88-1.5,1.53-2.52,1.85l-22.52,6.87-7.58,4.4-1.47,3.23c-.49,1.07-1.35,1.92-2.43,2.39l-25.09,10.89c-.61,.26-1.25,.39-1.89,.39Z" style="fill: #0c0a07;"/>
        <path d="M250.15,9.49l38.4,83.58-16.44,36.78h-17.39v18.27l-8.24,63.95-67.09,97.41-23.05,7.03-9.37,5.44-2.1,4.61-25.09,10.89-23.07-23.07-.03-.03-3.84-2.85-11.23-5.54-2.23-4.44-.15-.11-.04-.26L26.81,196.74v-53.87l-17.32-14.55V47.52L40.54,9.49l39.85,26.25,1.24-1.52,115.8-9.49,2.74,4.16,49.97-19.4M26.81,141.87l8.69-45.59h0s-8.68,45.59-8.68,45.59M250.14,0c-1.14,0-2.31,.21-3.43,.65l-43.23,16.78c-1.69-1.4-3.82-2.18-6.05-2.18-.26,0-.52,.01-.78,.03l-115.69,9.48L45.76,1.57C44.16,.51,42.34,0,40.55,0c-2.76,0-5.49,1.21-7.36,3.49L2.14,41.51c-1.38,1.69-2.14,3.82-2.14,6v80.8c0,2.8,1.24,5.46,3.39,7.27l13.94,11.71v49.44c0,1.48,.35,2.94,1.01,4.26l51.96,103.54c.27,.79,.65,1.53,1.11,2.22l1.74,3.47c.93,1.85,2.43,3.34,4.28,4.25l10.46,5.16,2.59,1.92,22.6,22.61c1.82,1.82,4.25,2.78,6.72,2.78,1.27,0,2.56-.26,3.78-.78l25.09-10.89c2.16-.94,3.89-2.64,4.86-4.78l.84-1.86,5.8-3.37,22-6.71c2.05-.63,3.83-1.93,5.05-3.7l67.09-97.41c.86-1.24,1.4-2.67,1.6-4.17l8.24-63.95c.05-.4,.08-.81,.08-1.21v-8.78h7.9c3.74,0,7.14-2.2,8.67-5.62l16.44-36.78c1.12-2.5,1.1-5.35-.04-7.84L258.77,5.53c-1.59-3.46-5.02-5.53-8.63-5.53h0Z" style="fill: #140c02;"/>
      </g>
      <polygon points="254.72 129.86 254.72 148.13 246.48 212.08 179.39 309.49 123.39 326.58 81.63 305.97 26.81 196.74 26.81 141.87 35.5 96.28 36.89 88.99 63.91 55.91 80.39 35.75 81.63 34.23 197.43 24.74 200.17 28.9 215.19 51.66 239.66 88.75 240.15 89.5 240.22 90.96 241.91 129.86 254.72 129.86" style="fill: #963;"/>
      <polygon points="80.39 35.75 36.89 88.99 26.81 141.87 26.81 142.87 9.49 128.32 9.49 47.52 40.54 9.49 80.39 35.75" style="fill: #963;"/>
      <polygon points="160.31 177.78 157.16 188 157.6 188.27 153.23 191.99 133.43 188.95 116.75 191.99 108.68 181.01 108.68 157.15 132.48 148.13 132.83 148.16 152.46 149.84 156.05 153.43 157.5 154.88 163.6 167.11 160.31 177.78" style="fill: #140c02;"/>
      <path d="M85.39,258.2l-13.92-1.95,2.09,6.26,5.7,38.92,17.45,12.94,11.98-39.51v-31.28l-23.29,14.63Zm92.55,0l-18.41-14.04v50.15l-12.55,27.66,27.19-15.79,11.33-40.41,3-7.56h-10.56Z" style="fill: #6b4625;"/>
      <polygon points="288.55 93.08 272.11 129.86 241.91 129.86 240.15 89.5 240.14 89.28 239.66 88.75 200.17 28.9 250.15 9.49 288.55 93.08" style="fill: #963;"/>
      <path d="M205.1,216.32l.34-.86-43.61-72.55-50.31-.95-55.05,69.29,.16,.47-7.64,7,16.26,36.66,6.22,.86,13.92,1.95,23.29-14.63,27.46-17.24,23.39,17.83,18.41,14.04h21.86l11-37.38-5.7-4.5Zm-44.79-38.54l-2.86,9.26-.29,.95,.45,.28-4.38,3.72-19.8-3.05-16.68,3.05-3.64-4.95-4.43-6.04v-23.86l23.8-9.02,.35,.03,19.63,1.68,3.59,3.59,1.45,1.45,6.1,12.23-3.29,10.67Z" style="fill: #6b4625;"/>
      <polygon points="157.45 187.05 157.16 188 157.6 188.27 153.23 191.99 133.43 188.95 116.75 191.99 113.11 187.05 108.68 181.01 108.68 157.15 132.48 148.13 132.83 148.16 152.46 149.84 156.05 153.43 157.5 154.88 163.6 167.11 160.31 177.78 157.45 187.05" style="fill: #0c0a07;"/>
      <polygon points="159.53 244.16 159.53 294.3 146.98 321.96 144.88 326.58 119.8 337.46 96.73 314.39 96.7 314.36 108.68 274.85 108.68 243.57 136.14 226.33 159.53 244.16" style="fill: #ffd4eb;"/>
      <polygon points="49.36 127.28 51.26 135.83 71.85 147.25 73.8 154.61 92.71 143.23 95.46 130.32 86.38 114.94 88.14 102.1 79.6 102.1 76.88 114.94 69.76 113.99 57.9 121.59 47.46 122.54 49.36 127.28" style="fill: #140c02;"/>
      <polygon points="222.65 127.28 220.75 135.83 200.16 147.25 198.21 154.61 179.29 143.23 176.55 130.32 185.63 114.94 183.87 102.1 192.41 102.1 195.12 114.94 202.24 113.99 214.11 121.59 224.55 122.54 222.65 127.28" style="fill: #140c02;"/>
      <g>
        <polygon points="68.53 126.34 70.71 134.73 74.22 137.03 85.24 132.49 82.82 123.48 76.89 121.64 68.53 126.34" style="fill: #ffe3ca;"/>
        <polygon points="86.09 133.44 73.63 138.61 73.05 138.23 72.51 129.85 67.61 127.98 67.21 126.43 76.65 121.08 77.39 121.31 76.65 128.16 85.9 132.73 85.9 132.74 86.09 133.44" style="fill: #140c02;"/>
      </g>
      <g>
        <polygon points="187.18 126.34 189.36 134.73 192.87 137.03 203.89 132.49 201.47 123.48 195.53 121.64 187.18 126.34" style="fill: #ffe3ca;"/>
        <polygon points="204.73 133.44 192.28 138.61 191.7 138.23 191.16 129.85 186.26 127.98 185.85 126.43 195.3 121.08 196.03 121.31 195.3 128.16 204.55 132.73 204.55 132.74 204.73 133.44" style="fill: #140c02;"/>
      </g>
      <polygon points="129.9 148.13 136.14 108.88 140.77 148.13 129.9 148.13" style="fill: #ffe3ca;"/>
      <polygon points="63.91 55.91 36.89 88.99 35.5 96.28 25.15 66.98 44.94 40.84 63.91 55.91" style="fill: #140c02;"/>
      <polygon points="254.72 77.46 240.22 90.96 240.15 89.5 239.66 88.75 215.19 51.66 232.07 45.14 254.72 77.46" style="fill: #140c02;"/>
    </g>
  </g>
</svg>