<?xml version="1.0" encoding="UTF-8"?>
<svg id="Capa_1" data-name="Capa 1" xmlns="http://www.w3.org/2000/svg" viewBox="0 0 60 60">
  <path d="M54.76,30.23c0,13.67-11.08,24.74-24.74,24.74-5.42,0-10.44-1.75-14.52-4.72l-10.22,4.72,4.21-10.53c-3.11-4.14-4.21-8.64-4.21-14.21,0-13.67,11.08-24.74,24.74-24.74s24.74,11.08,24.74,24.74Z" style="fill: #22170a;"/>
  <circle cx="30.02" cy="30.23" r="20.53" style="fill: none; stroke: #fff; stroke-miterlimit: 10; stroke-width: 2.11px;"/>
  <path d="M32.79,22.95c0-4.59-13.27-7.34-10.21,10.21,2.69,15.39,19.73,9.52,13.27,3.06-3.57-3.57-4.58,1.61-4.58,1.61,0,0-1.54-1.61-2.57-5.69s0-7.15,0-7.15c0,0,4.08,3.06,4.08-2.04Z" style="fill: #fff;"/>
</svg>